<mxfile host="app.diagrams.net" modified="2020-08-25T17:27:28.165Z" agent="5.0 (Windows)" etag="OQjPiFDuS80dDRqHyAu_" version="13.6.4" type="github">
  <diagram id="C5RBs43oDa-KdzZeNtuy" name="Page-1">
    <mxGraphModel dx="862" dy="461" grid="1" gridSize="10" guides="1" tooltips="1" connect="1" arrows="1" fold="1" page="1" pageScale="1" pageWidth="827" pageHeight="1169" background="#ffffff" math="0" shadow="0">
      <root>
        <mxCell id="WIyWlLk6GJQsqaUBKTNV-0" />
        <mxCell id="WIyWlLk6GJQsqaUBKTNV-1" parent="WIyWlLk6GJQsqaUBKTNV-0" />
        <mxCell id="CkzPJ7ueoi_SJVYN6UO0-9" value="" style="edgeStyle=orthogonalEdgeStyle;rounded=0;orthogonalLoop=1;jettySize=auto;html=1;" parent="WIyWlLk6GJQsqaUBKTNV-1" source="CkzPJ7ueoi_SJVYN6UO0-0" target="CkzPJ7ueoi_SJVYN6UO0-8" edge="1">
          <mxGeometry relative="1" as="geometry" />
        </mxCell>
        <mxCell id="CkzPJ7ueoi_SJVYN6UO0-0" value="Pobranie danych wejściowych" style="rounded=1;whiteSpace=wrap;html=1;arcSize=0;" parent="WIyWlLk6GJQsqaUBKTNV-1" vertex="1">
          <mxGeometry x="40" y="40" width="200" height="60" as="geometry" />
        </mxCell>
        <mxCell id="CkzPJ7ueoi_SJVYN6UO0-12" value="" style="edgeStyle=orthogonalEdgeStyle;rounded=0;orthogonalLoop=1;jettySize=auto;html=1;" parent="WIyWlLk6GJQsqaUBKTNV-1" source="CkzPJ7ueoi_SJVYN6UO0-8" target="CkzPJ7ueoi_SJVYN6UO0-10" edge="1">
          <mxGeometry relative="1" as="geometry" />
        </mxCell>
        <mxCell id="CkzPJ7ueoi_SJVYN6UO0-8" value="&lt;div&gt;Projekcja&lt;/div&gt;&lt;div&gt;&lt;br&gt;&lt;/div&gt;ψ=0,1,…,ψ-1" style="rounded=1;whiteSpace=wrap;html=1;arcSize=0;" parent="WIyWlLk6GJQsqaUBKTNV-1" vertex="1">
          <mxGeometry x="40" y="150" width="200" height="60" as="geometry" />
        </mxCell>
        <mxCell id="CkzPJ7ueoi_SJVYN6UO0-15" value="" style="edgeStyle=orthogonalEdgeStyle;rounded=0;orthogonalLoop=1;jettySize=auto;html=1;" parent="WIyWlLk6GJQsqaUBKTNV-1" source="CkzPJ7ueoi_SJVYN6UO0-10" target="CkzPJ7ueoi_SJVYN6UO0-14" edge="1">
          <mxGeometry relative="1" as="geometry" />
        </mxCell>
        <mxCell id="CkzPJ7ueoi_SJVYN6UO0-10" value="&lt;div&gt;Przeliczenie projekcji na punkty&lt;/div&gt;&lt;div&gt;&lt;br&gt;&lt;/div&gt;" style="rounded=1;whiteSpace=wrap;html=1;arcSize=0;" parent="WIyWlLk6GJQsqaUBKTNV-1" vertex="1">
          <mxGeometry x="40" y="260" width="200" height="60" as="geometry" />
        </mxCell>
        <mxCell id="N7PbZu_bCgqHMUpVmzbl-1" value="" style="edgeStyle=orthogonalEdgeStyle;rounded=0;orthogonalLoop=1;jettySize=auto;html=1;" edge="1" parent="WIyWlLk6GJQsqaUBKTNV-1" source="CkzPJ7ueoi_SJVYN6UO0-14" target="N7PbZu_bCgqHMUpVmzbl-0">
          <mxGeometry relative="1" as="geometry" />
        </mxCell>
        <mxCell id="CkzPJ7ueoi_SJVYN6UO0-14" value="&lt;div&gt;Transformata Fouriera&lt;/div&gt;&lt;div&gt;&lt;/div&gt;&lt;div&gt;&lt;br&gt;&lt;/div&gt;" style="rounded=0;whiteSpace=wrap;html=1;" parent="WIyWlLk6GJQsqaUBKTNV-1" vertex="1">
          <mxGeometry x="40" y="360" width="200" height="60" as="geometry" />
        </mxCell>
        <mxCell id="N7PbZu_bCgqHMUpVmzbl-4" value="" style="edgeStyle=orthogonalEdgeStyle;rounded=0;orthogonalLoop=1;jettySize=auto;html=1;" edge="1" parent="WIyWlLk6GJQsqaUBKTNV-1" source="CkzPJ7ueoi_SJVYN6UO0-16" target="N7PbZu_bCgqHMUpVmzbl-3">
          <mxGeometry relative="1" as="geometry" />
        </mxCell>
        <mxCell id="CkzPJ7ueoi_SJVYN6UO0-16" value="&lt;div&gt;Obrót obrazu f(x,y)&lt;/div&gt;" style="rounded=0;whiteSpace=wrap;html=1;" parent="WIyWlLk6GJQsqaUBKTNV-1" vertex="1">
          <mxGeometry x="310" y="470" width="220" height="60" as="geometry" />
        </mxCell>
        <mxCell id="CkzPJ7ueoi_SJVYN6UO0-18" value="Zsumowanie wartości każdego wiersza pikseli obracanego i interpolowanego obrazu f(x,y)" style="rounded=0;whiteSpace=wrap;html=1;" parent="WIyWlLk6GJQsqaUBKTNV-1" vertex="1">
          <mxGeometry x="530" y="680" width="200" height="60" as="geometry" />
        </mxCell>
        <mxCell id="N7PbZu_bCgqHMUpVmzbl-2" value="" style="edgeStyle=orthogonalEdgeStyle;rounded=0;orthogonalLoop=1;jettySize=auto;html=1;" edge="1" parent="WIyWlLk6GJQsqaUBKTNV-1" source="N7PbZu_bCgqHMUpVmzbl-0" target="CkzPJ7ueoi_SJVYN6UO0-16">
          <mxGeometry relative="1" as="geometry" />
        </mxCell>
        <mxCell id="N7PbZu_bCgqHMUpVmzbl-0" value="Dla każdego piksela w wierszu obliczenie połowy wysokości obrazu, aby przyśpieszyć obliczenia" style="rounded=0;whiteSpace=wrap;html=1;" vertex="1" parent="WIyWlLk6GJQsqaUBKTNV-1">
          <mxGeometry x="310" y="360" width="220" height="60" as="geometry" />
        </mxCell>
        <mxCell id="N7PbZu_bCgqHMUpVmzbl-6" value="" style="edgeStyle=orthogonalEdgeStyle;rounded=0;orthogonalLoop=1;jettySize=auto;html=1;" edge="1" parent="WIyWlLk6GJQsqaUBKTNV-1" source="N7PbZu_bCgqHMUpVmzbl-3" target="N7PbZu_bCgqHMUpVmzbl-5">
          <mxGeometry relative="1" as="geometry" />
        </mxCell>
        <mxCell id="N7PbZu_bCgqHMUpVmzbl-3" value="Wyliczenie nowych współrzędnych dla k i l" style="rounded=0;whiteSpace=wrap;html=1;" vertex="1" parent="WIyWlLk6GJQsqaUBKTNV-1">
          <mxGeometry x="310" y="570" width="220" height="60" as="geometry" />
        </mxCell>
        <mxCell id="N7PbZu_bCgqHMUpVmzbl-5" value="&lt;div&gt;Czy&lt;/div&gt;&lt;div&gt;współrzędne wykraczają &lt;br&gt;&lt;/div&gt;&lt;div&gt;poza obraz?&lt;br&gt;&lt;/div&gt;" style="rhombus;whiteSpace=wrap;html=1;" vertex="1" parent="WIyWlLk6GJQsqaUBKTNV-1">
          <mxGeometry x="310" y="670" width="220" height="80" as="geometry" />
        </mxCell>
      </root>
    </mxGraphModel>
  </diagram>
</mxfile>
